<svg width="500" height="500" xmlns="http://www.w3.org/2000/svg" fill="#0085FF">
 <g>
  <path stroke="null" d="m110.49658,68.85775c-40.73057,-29.52597 -106.75151,-52.37842 -106.75151,20.34066c0,14.52904 8.61892,121.97007 13.69177,139.40492c17.55798,60.65259 77.07779,67.72011 134.06118,58.33779c-99.61012,16.37595 -120.39403,78.99858 -65.67619,133.22392c25.36426,25.06875 47.10857,39.15453 65.67619,39.15453c49.25099,0 77.17629,-68.18799 86.18923,-86.18923c8.20029,-16.4252 12.31275,-28.73795 12.31275,-36.93824c0,8.20029 4.11246,20.51304 12.31275,36.93824c9.01293,18.00124 36.93824,86.18923 86.18923,86.18923c18.56762,0 40.31193,-14.06116 65.67619,-39.15453c54.71785,-54.24996 33.93393,-116.87259 -65.67619,-133.22392c56.98339,9.35769 116.47858,2.3148 134.06118,-58.33779c5.07285,-17.43485 13.69177,-124.9005 13.69177,-139.40492c0,-72.71908 -65.99632,-49.86662 -106.75151,-20.34066c-56.46626,40.92757 -117.21735,124.30949 -139.50342,168.83238c-22.28607,-44.52289 -83.03716,-127.90481 -139.50342,-168.83238z"/>
 </g>
</svg>
