<svg width="512" height="512" xmlns="http://www.w3.org/2000/svg" xml:space="preserve" version="1.1">

 <g>
  <title>Layer 1</title>
  <path id="svg_1" fill="#E4EAF6" d="m450.207,100.871c-38.621,-24.62 -88.49,-25.879 -102.621,-14.548c-23.724,19.025 -56.276,23.501 -91.586,23.501s-67.862,-4.477 -91.586,-23.501c-14.131,-11.331 -64,-10.072 -102.621,14.548c-26.947,17.178 -61.793,207.591 -61.793,259.629c0,47.001 18.676,67.748 44.138,71.621c29.426,4.477 61.793,-26.858 88.276,-53.716c26.483,-26.858 88.276,-35.811 123.586,-35.811s97.103,8.952 123.586,35.811c26.483,26.858 58.85,58.193 88.276,53.716c25.462,-3.873 44.138,-24.62 44.138,-71.621c0,-52.038 -34.846,-242.451 -61.793,-259.629z"/>
  <circle id="svg_2" fill="#D7DEED" r="52.966" cy="264.828" cx="176.552"/>
  <circle id="svg_3" fill="#C7CFE2" r="26.483" cy="176.552" cx="256"/>
  <path id="svg_4" fill="#D7DEED" d="m450.207,100.871c-38.621,-24.62 -88.49,-25.879 -102.621,-14.548c-23.724,19.025 -56.276,23.5 -91.586,23.5s-67.862,-4.477 -91.586,-23.5c-14.131,-11.331 -64,-10.072 -102.621,14.548c-3.602,2.296 -7.346,7.763 -11.127,15.503c42.865,-18.797 73.109,-19.822 92.782,-19.822c9.931,0 32.356,20.167 40.828,25.379c14.345,8.828 41.379,10.483 71.724,10.483s57.379,-1.655 71.724,-10.483c8.471,-5.213 30.897,-25.379 40.828,-25.379c19.673,0 49.918,1.025 92.782,19.822c-3.781,-7.741 -7.525,-13.207 -11.127,-15.503z"/>
  <path id="svg_5" fill="#D2FA50" d="m256,207.448c-17.035,0 -30.897,-13.863 -30.897,-30.897s13.863,-30.897 30.897,-30.897s30.897,13.863 30.897,30.897s-13.862,30.897 -30.897,30.897zm0,-52.965c-12.172,0 -22.069,9.901 -22.069,22.069c0,12.168 9.897,22.069 22.069,22.069s22.069,-9.901 22.069,-22.069c0,-12.168 -9.897,-22.069 -22.069,-22.069z"/>
  <g id="svg_6">
   <path id="svg_7" fill="#D7DEED" d="m203.034,185.379l-8.828,0c-4.875,0 -8.828,-3.953 -8.828,-8.828l0,0c0,-4.875 3.953,-8.828 8.828,-8.828l8.828,0c4.875,0 8.828,3.953 8.828,8.828l0,0c0,4.876 -3.952,8.828 -8.828,8.828z"/>
   <path id="svg_8" fill="#D7DEED" d="m317.793,185.379l-8.828,0c-4.875,0 -8.828,-3.953 -8.828,-8.828l0,0c0,-4.875 3.953,-8.828 8.828,-8.828l8.828,0c4.875,0 8.828,3.953 8.828,8.828l0,0c0,4.876 -3.953,8.828 -8.828,8.828z"/>
   <circle id="svg_9" fill="#D7DEED" r="52.966" cy="264.828" cx="335.448"/>
  </g>
  <g id="svg_10">
   <circle id="svg_11" fill="#707487" r="44.138" cy="264.828" cx="177.552"/>
   <circle id="svg_12" fill="#707487" r="30.897" cy="264.828" cx="336.448"/>
  </g>
  <circle id="svg_13" fill="#D7DEED" r="52.966" cy="176.552" cx="105.931"/>
  <circle id="svg_14" fill="#707487" r="30.897" cy="176.552" cx="105.931"/>
  <circle id="svg_15" fill="#82B9FF" r="17.655" cy="176.552" cx="370.759"/>
  <circle id="svg_16" fill="#FF6464" r="17.655" cy="176.552" cx="441.379"/>
  <g id="svg_17">
   <path id="svg_18" fill="#5B5D6E" d="m219.432,254.769c-3.808,-16.266 -16.556,-29.013 -32.822,-32.822c-0.724,2.414 -1.231,4.92 -1.231,7.57c0,14.626 11.857,26.483 26.483,26.483c2.649,0 5.156,-0.507 7.57,-1.231z"/>
   <path id="svg_19" fill="#5B5D6E" d="m133.672,254.769c2.414,0.724 4.92,1.231 7.57,1.231c14.626,0 26.483,-11.857 26.483,-26.483c0,-2.649 -0.506,-5.156 -1.231,-7.57c-16.266,3.809 -29.014,16.557 -32.822,32.822z"/>
   <path id="svg_20" fill="#5B5D6E" d="m219.432,274.887c-2.414,-0.724 -4.92,-1.231 -7.57,-1.231c-14.626,0 -26.483,11.857 -26.483,26.483c0,2.649 0.506,5.156 1.231,7.57c16.266,-3.809 29.014,-16.557 32.822,-32.822z"/>
   <path id="svg_21" fill="#5B5D6E" d="m141.241,273.655c-2.649,0 -5.156,0.506 -7.57,1.231c3.808,16.266 16.556,29.013 32.822,32.822c0.724,-2.414 1.231,-4.92 1.231,-7.57c0,-14.626 -11.856,-26.483 -26.483,-26.483z"/>
  </g>
  <circle id="svg_22" fill="#00DCC8" r="17.655" cy="211.862" cx="406.069"/>
  <circle id="svg_23" fill="#FFDC50" r="17.655" cy="141.241" cx="406.069"/>
  <path id="svg_24" fill="#707487" d="m388.109,370.759c-28.309,-32.9 -94.364,-43.868 -132.109,-43.868s-103.8,10.967 -132.109,43.868c-24.396,28.354 -53.461,56.172 -81.162,61.085c0.473,0.085 0.931,0.205 1.409,0.278c29.426,4.477 61.793,-26.858 88.276,-53.717s88.276,-35.812 123.586,-35.812s97.103,8.952 123.586,35.811s58.85,58.193 88.276,53.717c0.478,-0.073 0.937,-0.193 1.409,-0.278c-27.701,-4.912 -56.766,-32.73 -81.162,-61.084z"/>
  <g>
   <path fill="#FFCE54" d="m342.47122,258.70831c1.23363,-3.46709 2.83956,-7.87514 4.63674,-12.44279c6.76368,-17.23403 10.34784,-22.38634 11.88979,-23.92319c2.30765,-2.31309 5.16864,-3.87104 8.27398,-4.51457l1.07402,-0.22324l12.02796,-12.16612l14.39924,16.6327l-11.19828,10.72524l-0.23413,1.10091c-0.63808,3.10534 -2.20147,5.96599 -4.50912,8.28453c-1.54195,1.5314 -6.68915,5.12577 -23.91774,11.88468c-4.57242,1.79174 -8.98625,3.40822 -12.44245,4.64184z"/>
   <path fill="#F6BB42" d="m380.55476,200.11049l-14.01673,14.17089c-3.64779,0.75515 -7.18941,2.58943 -10.10316,5.50351c-7.44431,7.44396 -19.83401,44.78834 -19.83401,44.78834s37.33893,-12.38426 44.79379,-19.83401c2.90319,-2.90864 4.74326,-6.45536 5.49807,-10.10826l12.86784,-12.32607l-19.2058,-22.19441zm1.32926,29.28785l-1.62703,1.56339l-0.45738,2.20658c-0.49992,2.40906 -1.72265,4.64252 -3.53073,6.45026c-0.59554,0.59554 -4.49857,3.94012 -22.65213,11.0659c-1.73354,0.67518 -3.4351,1.32926 -5.07268,1.94079c0.61664,-1.63758 1.26562,-3.33913 1.94624,-5.06247c7.12543,-18.159 10.46457,-22.06203 11.07066,-22.65757c1.80807,-1.81318 4.04153,-3.03081 6.44481,-3.52528l2.14804,-0.44649l1.54195,-1.55794l8.49723,-8.6034l9.5818,11.06556l-7.89079,7.56069z"/>
   <g>
    <path fill="#DA4453" d="m404.63211,234.97672c2.03132,-0.95185 4.06263,-1.96257 6.08306,-3.0206l41.34814,-29.53254c1.69101,-1.57938 3.36057,-3.19586 5.00904,-4.83344c0.94641,-0.95695 1.89315,-1.91425 2.81846,-2.88209c-0.15961,18.83928 -8.79534,39.44988 -25.19391,55.85424c-5.46608,5.46097 -11.38987,10.06028 -17.56856,13.77715c-0.04254,0.02654 -0.28756,0.17016 -0.28756,0.17016c-1.37179,0.7446 -3.12678,0.53701 -4.28588,-0.62209c-0.38285,-0.38829 -0.65952,-0.84023 -0.82968,-1.31871c0,0 -0.12762,-0.3774 -0.15961,-0.54246l-7.46574,-26.80528c0.18139,-0.07963 0.35154,-0.16471 0.53225,-0.24434z"/>
    <path fill="#DA4453" d="m407.22698,142.02823c-0.96784,0.93041 -1.9248,1.87716 -2.88209,2.82867c-1.63792,1.64302 -3.25439,3.31259 -4.82833,5.00359c-7.24216,1.02093 -29.54309,41.35358 -29.54309,41.35358c-1.05292,2.02077 -2.06297,4.04698 -3.02026,6.0834c-0.08508,0.1756 -0.15961,0.35086 -0.24468,0.52646l-26.81073,-7.46608c-0.15961,-0.03199 -0.54246,-0.15961 -0.54246,-0.15961c-0.47848,-0.17016 -0.92531,-0.44649 -1.31871,-0.83478c-1.1591,-1.1591 -1.36124,-2.90864 -0.61664,-4.28588c0,0 0.13817,-0.23924 0.17016,-0.28178c3.71143,-6.17903 8.30563,-12.10248 13.77205,-17.56856c16.40946,-16.40946 37.01972,-25.04485 55.86479,-25.19902z"/>
   </g>
   <path fill="#E6E9ED" d="m403.64316,142.29402c-20.55751,20.56228 -35.38214,44.04919 -43.64558,66.80273c-0.43594,1.27617 -0.15961,2.73304 0.86133,3.74887l28.21417,28.22472c1.02093,1.01038 2.47781,1.29216 3.75397,0.85622c22.75864,-8.26343 46.24045,-23.08296 66.79796,-43.64524c31.94704,-31.93649 49.87701,-70.47196 51.21716,-103.33376c0.04254,-0.97839 -0.30832,-2.05786 -1.05292,-2.80757c-0.75515,-0.74971 -1.82917,-1.10057 -2.81812,-1.05803c-32.86112,1.3398 -71.39148,19.27556 -103.32797,51.21205z"/>
   <g>
    <path fill="#434A54" d="m444.68298,171.72582c-3.87104,0 -7.50794,-1.5103 -10.24132,-4.24334c-2.73304,-2.73848 -4.24334,-6.37573 -4.24334,-10.24677s1.5103,-7.50828 4.24334,-10.24677c2.73304,-2.73304 6.38083,-4.24334 10.24132,-4.24334c3.87104,0 7.50794,1.5103 10.25187,4.24334c5.64746,5.65257 5.64746,14.84607 0,20.49353c-2.74359,2.73304 -6.38083,4.24334 -10.24132,4.24334c-0.01055,0 -0.01055,0 -0.01055,0z"/>
    <path fill="#434A54" d="m413.94812,202.46067c-3.87104,0 -7.50794,-1.50486 -10.24132,-4.24334c-2.73338,-2.73304 -4.24368,-6.37573 -4.24368,-10.24166c0,-3.87104 1.5103,-7.51339 4.24368,-10.25187c2.73304,-2.73304 6.37028,-4.24334 10.24132,-4.24334c3.87138,0 7.50828,1.5103 10.25221,4.24334c5.64712,5.65257 5.64712,14.84641 0,20.49353c-2.74393,2.73848 -6.38083,4.24334 -10.25221,4.24334l0,0z"/>
   </g>
   <g>
    <path fill="#CCD1D9" d="m457.49773,144.43151c-3.42421,-3.41911 -7.97621,-5.30681 -12.81475,-5.30681c-4.82833,0 -9.37965,1.88771 -12.8042,5.30681c-3.41366,3.41911 -5.30681,7.97077 -5.30681,12.8042c0,4.83888 1.89281,9.38544 5.30681,12.80965c3.42421,3.41877 7.97621,5.30137 12.8042,5.30137c4.83888,0 9.39054,-1.88226 12.81475,-5.30137c7.0618,-7.06146 7.0618,-18.55206 0,-25.61385zm-5.12577,20.48809c-2.12694,2.1215 -4.90252,3.18497 -7.68899,3.18497c-2.77558,0 -5.56204,-1.06347 -7.6781,-3.18497c-4.24334,-4.24334 -4.24334,-11.12409 0,-15.36743c2.11639,-2.1215 4.90252,-3.17987 7.6781,-3.17987c2.78647,0 5.56204,1.05803 7.68899,3.17987c4.243,4.24334 4.243,11.12409 0,15.36743z"/>
    <path fill="#CCD1D9" d="m413.94812,169.865c-4.83888,0 -9.37965,1.88226 -12.80454,5.30137c-3.42421,3.41877 -5.30681,7.97077 -5.30681,12.80965c0,4.83378 1.88226,9.37999 5.30681,12.80454c3.42455,3.41911 7.96566,5.30681 12.80454,5.30681c4.83922,0 9.39088,-1.88771 12.81543,-5.30681c7.06146,-7.06146 7.06146,-18.55274 0,-25.61419c-3.42455,-3.41911 -7.97621,-5.30137 -12.81543,-5.30137zm7.68933,25.78945c-2.12694,2.12694 -4.90286,3.18497 -7.68933,3.18497c-2.77558,0 -5.56204,-1.05803 -7.6781,-3.18497c-4.24368,-4.24368 -4.24368,-11.12409 0,-15.36743c2.11639,-2.12184 4.90252,-3.17987 7.6781,-3.17987c2.78647,0 5.56238,1.05803 7.68933,3.17987c4.24334,4.243 4.24334,11.12375 0,15.36743z"/>
   </g>
   <path fill="#DA4453" d="m499.68644,140.51283l-38.27479,-38.26968c15.59067,-6.77968 31.12826,-10.57108 45.55949,-11.16118c0.98894,-0.04254 2.06297,0.30832 2.81812,1.05803c0.7446,0.74971 1.09546,1.82917 1.05292,2.80757c-0.58499,14.44212 -4.38151,29.9746 -11.15574,45.56527z"/>
  </g>
 </g>
</svg>
