<svg height="800px" width="800px" version="1.1" id="Layer_1" xmlns="http://www.w3.org/2000/svg" xmlns:xlink="http://www.w3.org/1999/xlink" 
	 viewBox="0 0 512 512" xml:space="preserve">
<circle style="fill:#FFC61B;" cx="256" cy="256" r="256"/>
<path style="fill:#EAA22F;" d="M288.596,509.945c115.71-14.705,207.301-106.653,221.484-222.527l-132.732-132.73l-47.813,11.669
	v14.52L224.899,76.241l-5.242,14.264h-44.104v60.337l5.572,11.636l6.604,14.905l4.992,17.849l-48.68,6.363l69.008,66.534v32.692
	l16.141,91.758l-56.032,6.889L288.596,509.945z"/>
<ellipse style="fill:#386895;" cx="199.111" cy="198.008" rx="56.889" ry="14.222"/>
<path style="fill:#273B7A;" d="M199.111,183.794c-0.193,0-0.383,0.003-0.574,0.003v28.438c0.191,0,0.381,0.003,0.574,0.003
	c31.418,0,56.889-6.368,56.889-14.222S230.529,183.794,199.111,183.794z"/>
<ellipse style="fill:#C92F00;" cx="235.968" cy="395.636" rx="64.646" ry="16.162"/>
<path style="fill:#930000;" d="M300.618,395.636c0-8.921-28.91-16.153-64.586-16.162v32.323
	C271.706,411.789,300.618,404.558,300.618,395.636z"/>
<ellipse style="fill:#273B7A;" cx="354.469" cy="237.037" rx="45.684" ry="11.421"/>
<path style="fill:#121149;" d="M400.144,237.037c0-6.301-20.406-11.409-45.594-11.421v22.84
	C379.74,248.446,400.144,243.338,400.144,237.037z"/>
<path style="fill:#38C6D9;" d="M199.111,67.829c-24.169,0-43.761,19.592-43.761,43.761c0,30.499,43.761,87.521,43.761,87.521
	s43.761-55.522,43.761-87.521C242.872,87.421,223.28,67.829,199.111,67.829z M199.111,129.722c-9.935,0-17.989-8.054-17.989-17.989
	s8.054-17.989,17.989-17.989c9.935,0,17.989,8.054,17.989,17.989S209.046,129.722,199.111,129.722z"/>
<path style="fill:#02B2B2;" d="M242.872,111.59c0-24.169-19.592-43.761-43.761-43.761c-0.193,0-0.383,0.012-0.574,0.014v25.931
	c0.193-0.007,0.381-0.029,0.574-0.029c9.935,0,17.989,8.054,17.989,17.989s-8.054,17.989-17.989,17.989
	c-0.193,0-0.381-0.022-0.574-0.029v68.66c0.365,0.484,0.574,0.759,0.574,0.759S242.872,143.589,242.872,111.59z"/>
<path style="fill:#386895;" d="M354.461,144.41c-16.918,0-30.632,13.715-30.632,30.632c0,21.351,30.632,61.264,30.632,61.264
	s30.632-38.865,30.632-61.264C385.095,158.125,371.379,144.41,354.461,144.41z M354.461,187.735
	c-6.954,0-12.591-5.637-12.591-12.591s5.637-12.591,12.591-12.591s12.591,5.637,12.591,12.591S361.415,187.735,354.461,187.735z"/>
<path style="fill:#273B7A;" d="M354.551,144.415v18.141c6.913,0.048,12.503,5.663,12.503,12.588s-5.591,12.54-12.503,12.588v48.462
	c1.805-2.31,30.544-39.455,30.544-61.152C385.095,158.155,371.428,144.463,354.551,144.415z"/>
<path style="fill:#D35933;" d="M235.972,246.238c-27.979,0-50.662,22.681-50.662,50.662c0,35.309,50.662,101.323,50.662,101.323
	s50.662-64.278,50.662-101.323C286.632,268.921,263.951,246.238,235.972,246.238z M235.972,317.892
	c-11.502,0-20.825-9.325-20.825-20.825c0-11.502,9.325-20.825,20.825-20.825s20.825,9.325,20.825,20.825
	S247.472,317.892,235.972,317.892z"/>
<path style="fill:#B54324;" d="M236.032,246.239v30.005c11.473,0.033,20.764,9.342,20.764,20.821
	c0,11.479-9.292,20.789-20.764,20.821v80.256c1.293-1.646,50.6-64.686,50.6-101.245C286.632,268.94,263.983,246.272,236.032,246.239
	z"/>
</svg>
