<svg width="49.99999999999999" height="48" xmlns="http://www.w3.org/2000/svg">

 <title>Cloudflare logo</title>
 <g>
  <title>Layer 1</title>
  <g id="svg_6">
   <path id="svg_1" fill="#fff" d="m44.60202,23.70008l-5.6,-1.3l-1,-0.4l-25.7,0.2l0,12.4l32.3,0.1l0,-11z" class="a"/>
   <path id="svg_2" fill="#f48120" d="m34.10202,33.50008a2.85546,2.85546 0 0 0 -0.3,-2.6a3.09428,3.09428 0 0 0 -2.1,-1.1l-17.4,-0.2c-0.1,0 -0.2,-0.1 -0.3,-0.1a0.1875,0.1875 0 0 1 0,-0.3c0.1,-0.2 0.2,-0.3 0.4,-0.3l17.5,-0.2a6.29223,6.29223 0 0 0 5.1,-3.8l1,-2.6c0,-0.1 0.1,-0.2 0,-0.3a11.39646,11.39646 0 0 0 -21.9,-1.2a5.45941,5.45941 0 0 0 -3.6,-1a5.20936,5.20936 0 0 0 -4.6,4.6a5.46262,5.46262 0 0 0 0.1,1.8a7.30177,7.30177 0 0 0 -7.1,7.3a4.102,4.102 0 0 0 0.1,1.1a0.3193,0.3193 0 0 0 0.3,0.3l32.1,0c0.2,0 0.4,-0.1 0.4,-0.3l0.3,-1.1z" class="b"/>
   <path id="svg_3" fill="#faad3f" d="m39.60202,22.30008l-0.5,0c-0.1,0 -0.2,0.1 -0.3,0.2l-0.7,2.4a2.85546,2.85546 0 0 0 0.3,2.6a3.09428,3.09428 0 0 0 2.1,1.1l3.7,0.2c0.1,0 0.2,0.1 0.3,0.1a0.1875,0.1875 0 0 1 0,0.3c-0.1,0.2 -0.2,0.3 -0.4,0.3l-3.8,0.2a6.29223,6.29223 0 0 0 -5.1,3.8l-0.2,0.9c-0.1,0.1 0,0.3 0.2,0.3l13.2,0a0.26517,0.26517 0 0 0 0.3,-0.3a10.87184,10.87184 0 0 0 0.4,-2.6a9.56045,9.56045 0 0 0 -9.5,-9.5" class="c"/>
  </g>
 </g>
</svg>