<?xml version="1.0" encoding="utf-8"?>
<svg version="1.1" id="layer" xmlns="http://www.w3.org/2000/svg" xmlns:xlink="http://www.w3.org/1999/xlink" x="0px" y="0px"
	 viewBox="-153 -46 652 652" style="enable-background:new -153 -46 652 652;" xml:space="preserve">
<path d="M260.4,318.7c0.1,2.5-0.9,4.8-2.6,6.6c-3.6,3.5-9.3,3.5-12.9,0c-1.7-1.7-2.7-4.1-2.6-6.6c0-5,4.1-9.1,9.1-9.1
	C256.3,309.6,260.4,313.7,260.4,318.7z M313.9,286.3c-1.4-0.9-3-1.5-4.5-2c-1.4-0.4-2.9-0.7-4.4-0.7c-3.5-0.1-6.8,1.3-9.1,4
	c-2.4,3-3.6,6.8-3.4,10.6c-0.2,3.9,1,7.7,3.4,10.8c2.5,2.6,6,4,9.6,3.8c1.5,0,3-0.2,4.4-0.7c1.4-0.5,2.8-1.3,4-2.3v15
	c-2,1.1-4.2,1.9-6.5,2.4c-2.3,0.5-4.7,0.8-7.1,0.8c-7.5,0.4-14.8-2.5-20-7.9c-5.2-5.9-7.9-13.7-7.4-21.6c-0.4-7.9,2.3-15.6,7.5-21.5
	c5.2-5.4,12.5-8.3,20-7.9c4.6,0,9.2,0.7,13.6,2.2L313.9,286.3L313.9,286.3z M379,298.4c0.4,7.9-2.4,15.7-7.8,21.5
	c-11.8,10.6-29.7,10.6-41.5,0c-5.3-5.8-8.1-13.6-7.7-21.5c-0.4-7.9,2.4-15.7,7.7-21.5c11.8-10.6,29.7-10.6,41.5,0
	C376.7,282.8,379.5,290.5,379,298.4L379,298.4z M350.5,314.2c3.1,0.1,6.1-1.5,7.7-4.1c2-3.6,3-7.7,2.7-11.8
	c0.2-4.1-0.7-8.1-2.7-11.7c-2.9-4.3-8.6-5.4-12.9-2.6c-1,0.7-1.9,1.5-2.5,2.5c-2,3.6-3,7.6-2.7,11.7c-0.3,4.1,0.7,8.2,2.7,11.8
	C344.5,312.8,347.4,314.3,350.5,314.2L350.5,314.2z M389.1,327.9v-57.7h17.4v8.9c2.1-3,4.8-5.4,7.9-7.2c3-1.6,6.4-2.4,9.9-2.3
	c3.2-0.1,6.3,0.7,9,2.4c2.4,1.7,4,4.2,4.6,7.1c2.3-2.9,5.1-5.3,8.3-7.2c2.9-1.5,6.1-2.3,9.4-2.3c4-0.4,7.9,1.2,10.4,4.3
	c2,2.9,3,8.8,2.9,17.9v36h-18.4V293c0.2-2.3-0.2-4.7-1.3-6.8c-1-1.3-2.6-2-4.3-1.9c-2-0.2-3.9,0.6-5.2,2.1c-1.2,2.2-1.8,4.8-1.6,7.3
	v34.2h-18.2V293c0.2-2.3-0.3-4.7-1.3-6.8c-0.9-1.4-2.6-2.2-4.2-2c-2-0.2-4,0.6-5.4,2.2c-1.3,2.2-1.8,4.8-1.6,7.3v34.2H389.1z
	 M208.9,222.1h-37.4l-13.9,49.8l-15.4-49.8h-34.7l-10.5,54.4l-9.7-54.4H49.8l-13.9,49.8l-15.4-49.8h-34.7l-7.8,40.8
	c-5.9-26-29.6-40.8-65.4-40.8h-43.7v105.8h53c17,0,36-5.3,47.4-19.6l-3.8,19.6h37l7.6-44.4l13,44.4h29l11-44.2l6.7,44.2h54.3
	l7.6-44.4l13,44.4h29l11-44.2l6.7,44.2h36.5L208.9,222.1z M-84.5,291.2v-33c8,0,20.2,0.4,20.2,16.4C-64.3,291-76,291.2-84.5,291.2z"
	/>
</svg>
