<svg width="500" height="500" xmlns="http://www.w3.org/2000/svg" xmlns:xlink="http://www.w3.org/1999/xlink">
 <defs id="defs57">
  <pattern y="0" x="0" height="6" width="6" patternUnits="userSpaceOnUse" id="EMFhbasepattern"/>
  <linearGradient xlink:href="#linearGradient1070" id="linearGradient1072" x1="1.00304" y1="0.70034" x2="-0.00037" y2="0.67881"/>
  <linearGradient id="linearGradient1070">
   <stop offset="0" id="stop1066" stop-color="#3e82f4"/>
   <stop offset="1" id="stop1068" stop-color="#93dcf7"/>
  </linearGradient>
 </defs>
 <g>
  <title>Layer 1</title>
  <g id="#ffffffff"/>
  <g id="#2acbffff-4" transform="matrix(0.74035173,0,0,0.75447038,-840.95699,-775.15387)" fill="#00ff00"/>
  <path d="m286.14423,91.82999a133.5537,133.5537 0 0 0 -116.28712,68.35315a73.26242,73.26242 0 0 0 -31.97253,-7.39468a73.26242,73.26242 0 0 0 -72.12615,61.54113a100.88593,100.88593 0 0 0 -61.92115,93.05209a100.88593,100.88593 0 0 0 100.93472,100.78831a100.88593,100.88593 0 0 0 12.65386,-0.91203l280.45477,0a93.90324,94.35022 0 0 0 4.42411,0.21393a93.90324,94.35022 0 0 0 4.21576,-0.21393l6.71632,0l0,-0.49918a93.90324,94.35022 0 0 0 82.92591,-93.6376l0,-0.18104a93.90324,94.35022 0 0 0 -76.44506,-92.47595a133.5537,133.5537 0 0 0 -133.57344,-128.6342z" id="rect955" fill="url(#linearGradient1072)" stroke-width="0" stroke-miterlimit="4"/>
 </g>
</svg>
